<?xml version="1.0" encoding="UTF-8" standalone="no"?>
<svg width="600px" height="197px" viewBox="0 0 600 197" version="1.1" xmlns="http://www.w3.org/2000/svg" xmlns:xlink="http://www.w3.org/1999/xlink" xmlns:sketch="http://www.bohemiancoding.com/sketch/ns">
    <!-- Generator: Sketch 3.3.3 (12072) - http://www.bohemiancoding.com/sketch -->
    <title>navia-logo-final_gradient-fullcolor-mark-type-tag</title>
    <desc>Created with Sketch.</desc>
    <defs>
        <linearGradient x1="0.0019956588%" y1="50.2503023%" x2="99.9986652%" y2="49.8808967%" id="linearGradient-1">
            <stop stop-color="#45C2CC" offset="0%"></stop>
            <stop stop-color="#2BAEB7" offset="41.32%"></stop>
            <stop stop-color="#008C95" offset="100%"></stop>
        </linearGradient>
        <linearGradient x1="6.70453894%" y1="89.5563053%" x2="103.530848%" y2="20.1810287%" id="linearGradient-2">
            <stop stop-color="#F26827" offset="0%"></stop>
            <stop stop-color="#F47A23" offset="19.56%"></stop>
            <stop stop-color="#FAA419" offset="71.54%"></stop>
            <stop stop-color="#FCB415" offset="98.16%"></stop>
        </linearGradient>
        <linearGradient x1="-4.07942451%" y1="4.47075572%" x2="92.3907785%" y2="89.0250883%" id="linearGradient-3">
            <stop stop-color="#AC2228" offset="0%"></stop>
            <stop stop-color="#A52429" offset="35.04%"></stop>
            <stop stop-color="#92282B" offset="85.99%"></stop>
            <stop stop-color="#8B2A2C" offset="100%"></stop>
        </linearGradient>
    </defs>
    <g id="Page-1" stroke="none" stroke-width="1" fill="none" fill-rule="evenodd" sketch:type="MSPage">
        <g id="navia-logo-final_gradient-fullcolor-mark-type-tag" sketch:type="MSLayerGroup" transform="translate(0.000000, -1.000000)">
            <path d="M172.584,111.017 L172.593,110.726 C112.565,69.481 0,146.445 0,146.445 C0,146.445 94.963,215.374 157.513,193.79 C176.987,188.361 191.41,170.638 191.716,149.404 C191.923,133.663 184.366,119.664 172.584,111.017 L172.584,111.017 Z M167.662,171.185 C155.477,183.172 135.973,182.951 124.113,170.697 C112.252,158.435 112.503,138.785 124.695,126.802 C136.881,114.823 156.374,115.043 168.233,127.302 C180.104,139.551 179.849,159.195 167.662,171.185 L167.662,171.185 Z" id="Shape" fill="url(#linearGradient-1)" sketch:type="MSShapeGroup"></path>
            <path d="M144.329,1 C144.329,1 76.206,98.101 99.038,160.969 C104.846,180.569 122.991,194.853 144.465,194.814 C160.367,194.789 174.419,186.905 182.953,174.863 L183.244,174.863 C223.969,113.521 144.329,1 144.329,1 L144.329,1 Z M167.662,171.185 C155.477,183.172 135.973,182.951 124.113,170.697 C112.252,158.435 112.503,138.785 124.695,126.802 C136.881,114.823 156.374,115.043 168.233,127.302 C180.104,139.551 179.849,159.195 167.662,171.185 L167.662,171.185 Z" id="Shape" fill="url(#linearGradient-2)" sketch:type="MSShapeGroup"></path>
            <path d="M191.42,141.89 L191.376,141.694 C178.084,70.079 44.078,44.927 44.078,44.927 C44.078,44.927 62.478,160.786 121.977,189.761 C139.601,199.691 162.317,197.352 177.566,182.543 C188.822,171.575 193.623,156.333 191.42,141.89 L191.42,141.89 Z" id="Shape" fill="url(#linearGradient-3)" sketch:type="MSShapeGroup"></path>
            <path d="M166.637,170.127 C155.035,181.547 136.459,181.335 125.162,169.663 C113.866,157.986 114.105,139.268 125.717,127.859 C137.322,116.45 155.888,116.659 167.182,128.336 C178.486,140.001 178.246,158.71 166.637,170.127 L166.637,170.127 Z" id="Path" fill="#FFFFFF" sketch:type="MSShapeGroup"></path>
            <path d="M291.738,66.838 L291.738,119.414 L279.121,119.414 L279.121,70.236 C279.121,55.193 270.062,46.293 255.019,46.293 C238.193,46.455 227.839,57.457 226.382,73.635 L226.382,119.414 L213.765,119.414 L213.765,34.162 L226.382,34.162 L226.382,52.928 C232.366,39.985 243.855,33.84 259.386,33.676 C279.768,33.676 291.738,46.293 291.738,66.838 L291.738,66.838 Z" id="Shape" fill="#3E3E3F" sketch:type="MSShapeGroup"></path>
            <path d="M372.779,106.312 C365.986,115.533 355.146,120.062 341.556,120.062 C323.923,120.062 312.601,108.738 312.601,94.017 C312.601,79.132 324.41,69.749 344.47,69.589 L372.456,69.589 L372.456,64.573 C372.456,52.118 364.69,44.675 349.645,44.675 C340.26,44.675 331.526,48.236 322.629,54.384 L317.289,45.161 C328.293,37.882 337.51,33.675 352.072,33.675 C373.101,33.675 384.75,44.839 384.91,63.118 L385.072,119.413 L372.777,119.413 L372.777,106.312 L372.779,106.312 Z M372.617,89.973 L372.617,79.781 L346.088,79.781 C331.854,79.781 324.41,84.148 324.41,93.531 C324.41,102.916 332.012,109.062 343.984,109.062 C358.383,109.062 369.381,101.783 372.617,89.973 L372.617,89.973 Z" id="Shape" fill="#3E3E3F" sketch:type="MSShapeGroup"></path>
            <path d="M428.752,119.414 L394.941,34.162 L408.367,34.162 L435.547,106.312 L462.561,34.162 L475.342,34.162 L441.856,119.414 L428.752,119.414 L428.752,119.414 Z" id="Shape" fill="#3E3E3F" sketch:type="MSShapeGroup"></path>
            <path d="M504.613,9.734 C504.613,14.752 501.056,18.47 496.365,18.47 C491.672,18.47 488.111,14.751 488.111,9.734 C488.111,4.72 491.672,1 496.365,1 C501.057,1 504.613,4.721 504.613,9.734 L504.613,9.734 Z M490.217,119.416 L490.217,34.162 L502.674,34.162 L502.674,119.416 L490.217,119.416 L490.217,119.416 Z" id="Shape" fill="#3E3E3F" sketch:type="MSShapeGroup"></path>
            <path d="M586.307,106.312 C579.512,115.533 568.676,120.064 555.086,120.064 C537.451,120.064 526.127,108.74 526.127,94.019 C526.127,79.134 537.938,69.751 557.996,69.589 L585.982,69.589 L585.982,64.573 C585.982,52.118 578.22,44.677 563.171,44.677 C553.79,44.677 545.054,48.238 536.155,54.384 L530.819,45.163 C541.819,37.884 551.04,33.677 565.598,33.677 C586.627,33.677 598.276,44.841 598.44,63.12 L598.6,119.415 L586.305,119.415 L586.305,106.312 L586.307,106.312 Z M586.146,89.975 L586.146,79.781 L559.613,79.781 C545.379,79.781 537.937,84.15 537.937,93.533 C537.937,102.916 545.541,109.064 557.511,109.064 C571.908,109.064 582.91,101.785 586.146,89.975 L586.146,89.975 Z" id="Shape" fill="#3E3E3F" sketch:type="MSShapeGroup"></path>
            <path d="M238.957,165.604 C238.957,173.114 233.826,178.502 226.572,178.502 C221.541,178.502 217.593,175.883 215.672,171.732 L215.672,178.453 L213.598,178.453 L213.598,141.783 L215.672,141.783 L215.672,159.474 C217.594,155.273 221.541,152.654 226.572,152.654 C233.777,152.654 238.957,158.041 238.957,165.604 L238.957,165.604 Z M236.938,165.604 C236.938,159.229 232.497,154.584 226.278,154.584 C220.112,154.584 215.673,159.229 215.673,165.604 C215.673,171.979 220.112,176.575 226.278,176.575 C232.496,176.574 236.938,171.979 236.938,165.604 L236.938,165.604 Z" id="Shape" fill="#8A8C8E" sketch:type="MSShapeGroup"></path>
            <path d="M268.16,166.146 L245.711,166.146 C246.006,172.423 250.35,176.625 256.316,176.625 C259.82,176.625 262.929,175.34 265.004,173.066 L266.188,174.4 C263.817,176.97 260.315,178.502 256.219,178.502 C248.967,178.502 243.686,173.166 243.686,165.604 C243.686,158.042 248.967,152.655 256.219,152.655 C263.768,152.654 268.309,158.189 268.16,166.146 L268.16,166.146 Z M266.285,164.318 C265.889,158.488 262.092,154.533 256.219,154.533 C250.448,154.533 246.252,158.488 245.76,164.318 L266.285,164.318 L266.285,164.318 Z" id="Shape" fill="#8A8C8E" sketch:type="MSShapeGroup"></path>
            <path d="M298.053,162.736 L298.053,178.453 L295.981,178.453 L295.981,163.133 C295.981,157.846 292.874,154.731 287.592,154.731 C281.672,154.879 278.022,158.586 277.58,164.516 L277.58,178.454 L275.506,178.454 L275.506,152.706 L277.58,152.706 L277.58,159.278 C279.305,155.028 282.957,152.755 288.086,152.655 C294.352,152.654 298.053,156.461 298.053,162.736 L298.053,162.736 Z" id="Shape" fill="#8A8C8E" sketch:type="MSShapeGroup"></path>
            <path d="M329.184,166.146 L306.735,166.146 C307.03,172.423 311.368,176.625 317.34,176.625 C320.844,176.625 323.951,175.34 326.024,173.066 L327.21,174.4 C324.841,176.97 321.337,178.502 317.241,178.502 C309.987,178.502 304.71,173.166 304.71,165.604 C304.71,158.042 309.987,152.655 317.241,152.655 C324.791,152.654 329.33,158.189 329.184,166.146 L329.184,166.146 Z M327.305,164.318 C326.912,158.488 323.114,154.533 317.241,154.533 C311.47,154.533 307.276,158.488 306.784,164.318 L327.305,164.318 L327.305,164.318 Z" id="Shape" fill="#8A8C8E" sketch:type="MSShapeGroup"></path>
            <path d="M337.023,149.641 C337.023,144.6 340.523,141.34 344.619,141.34 C346.248,141.387 347.877,141.934 349.156,142.721 L349.109,144.846 C347.775,143.957 346.199,143.364 344.668,143.364 C341.461,143.315 339.043,145.788 339.043,149.444 L339.043,152.952 L346.988,152.952 L346.988,154.78 L339.043,154.78 L339.043,178.454 L337.023,178.454 L337.023,154.78 L333.765,154.78 L333.765,152.952 L337.023,152.952 L337.023,149.641 L337.023,149.641 Z M354.342,145.289 C354.342,146.328 353.551,147.121 352.612,147.121 C351.626,147.121 350.887,146.328 350.887,145.289 C350.887,144.305 351.625,143.512 352.612,143.512 C353.551,143.512 354.342,144.305 354.342,145.289 L354.342,145.289 Z M353.598,152.705 L353.598,178.453 L351.577,178.453 L351.577,152.705 L353.598,152.705 L353.598,152.705 Z" id="Shape" fill="#8A8C8E" sketch:type="MSShapeGroup"></path>
            <path d="M375.943,176.674 C374.316,177.811 372.492,178.502 370.564,178.502 C366.916,178.553 364.742,176.178 364.742,171.338 L364.742,155.125 L360.994,155.125 L360.994,153.348 L364.742,153.348 L364.742,146.971 L366.719,146.971 L366.719,153.348 L375.451,153.348 L375.451,155.125 L366.719,155.125 L366.719,171.09 C366.719,174.746 368.151,176.526 370.813,176.477 C372.295,176.477 373.823,175.934 375.157,174.995 L375.943,176.674 L375.943,176.674 Z" id="Shape" fill="#8A8C8E" sketch:type="MSShapeGroup"></path>
            <path d="M409.982,154.682 L409.093,156.362 C407.316,155.225 405.044,154.534 402.579,154.534 C398.979,154.534 396.167,155.917 396.167,158.981 C396.167,165.901 411.165,162.491 411.165,171.585 C411.165,176.38 406.87,178.503 402.233,178.503 C398.631,178.503 395.176,177.218 392.809,174.944 L393.747,173.364 C395.97,175.438 399.075,176.626 402.333,176.626 C405.933,176.626 409.044,175.192 409.19,171.933 C409.387,164.665 394.192,167.978 394.192,159.132 C394.192,154.632 398.09,152.655 402.628,152.655 C405.49,152.654 407.957,153.445 409.982,154.682 L409.982,154.682 Z" id="Shape" fill="#8A8C8E" sketch:type="MSShapeGroup"></path>
            <path d="M440.717,165.555 C440.717,173.166 435.387,178.502 428.037,178.502 C420.73,178.502 415.353,173.166 415.353,165.555 C415.353,158.041 420.73,152.655 428.037,152.655 C435.387,152.654 440.717,158.041 440.717,165.555 L440.717,165.555 Z M417.379,165.604 C417.379,172.081 421.867,176.575 428.037,176.575 C434.252,176.575 438.691,172.081 438.691,165.604 C438.691,159.131 434.252,154.631 428.037,154.631 C421.867,154.631 417.379,159.131 417.379,165.604 L417.379,165.604 Z" id="Shape" fill="#8A8C8E" sketch:type="MSShapeGroup"></path>
            <path d="M448.455,178.453 L448.455,141.783 L450.529,141.783 L450.529,178.453 L448.455,178.453 L448.455,178.453 Z" id="Shape" fill="#8A8C8E" sketch:type="MSShapeGroup"></path>
            <path d="M482.348,178.453 L480.328,178.453 L480.328,171.584 C478.699,176.033 475.096,178.453 470.016,178.502 C463.799,178.502 460.198,174.746 460.198,168.422 L460.198,152.707 L462.219,152.707 L462.219,168.025 C462.219,173.312 465.278,176.427 470.457,176.427 C476.674,176.279 480.328,172.029 480.328,165.306 L480.328,152.706 L482.348,152.706 L482.348,178.453 L482.348,178.453 Z" id="Shape" fill="#8A8C8E" sketch:type="MSShapeGroup"></path>
            <path d="M504.742,176.676 C503.115,177.811 501.291,178.502 499.365,178.502 C495.715,178.553 493.543,176.18 493.543,171.338 L493.543,155.127 L489.793,155.127 L489.793,153.348 L493.543,153.348 L493.543,146.973 L495.518,146.973 L495.518,153.348 L504.25,153.348 L504.25,155.127 L495.518,155.127 L495.518,171.09 C495.518,174.746 496.948,176.528 499.612,176.477 C501.094,176.477 502.622,175.936 503.956,174.995 L504.742,176.676 L504.742,176.676 Z" id="Shape" fill="#8A8C8E" sketch:type="MSShapeGroup"></path>
            <path d="M513.77,145.291 C513.77,146.33 512.983,147.121 512.045,147.121 C511.107,147.121 510.315,146.33 510.315,145.291 C510.315,144.305 511.108,143.514 512.045,143.514 C512.982,143.514 513.77,144.305 513.77,145.291 L513.77,145.291 Z M511.006,178.453 L511.006,152.707 L513.031,152.707 L513.031,178.453 L511.006,178.453 L511.006,178.453 Z" id="Shape" fill="#8A8C8E" sketch:type="MSShapeGroup"></path>
            <path d="M545.938,165.555 C545.938,173.166 540.61,178.502 533.258,178.502 C525.953,178.502 520.574,173.166 520.574,165.555 C520.574,158.043 525.953,152.657 533.258,152.657 C540.609,152.656 545.938,158.043 545.938,165.555 L545.938,165.555 Z M522.6,165.604 C522.6,172.083 527.088,176.577 533.258,176.577 C539.473,176.577 543.912,172.083 543.912,165.604 C543.912,159.131 539.473,154.633 533.258,154.633 C527.088,154.633 522.6,159.131 522.6,165.604 L522.6,165.604 Z" id="Shape" fill="#8A8C8E" sketch:type="MSShapeGroup"></path>
            <path d="M575.977,162.738 L575.977,178.453 L573.905,178.453 L573.905,163.133 C573.905,157.848 570.798,154.731 565.516,154.731 C559.598,154.879 555.944,158.588 555.502,164.518 L555.502,178.454 L553.432,178.454 L553.432,152.708 L555.502,152.708 L555.502,159.278 C557.229,155.03 560.881,152.757 566.008,152.657 C572.275,152.656 575.977,156.461 575.977,162.738 L575.977,162.738 Z" id="Shape" fill="#8A8C8E" sketch:type="MSShapeGroup"></path>
            <path d="M598.814,154.684 L597.925,156.362 C596.152,155.227 593.88,154.534 591.413,154.534 C587.811,154.534 584.999,155.919 584.999,158.983 C584.999,165.903 599.999,162.493 599.999,171.585 C599.999,176.382 595.708,178.503 591.069,178.503 C587.467,178.503 584.012,177.218 581.645,174.946 L582.583,173.364 C584.802,175.44 587.909,176.628 591.165,176.628 C594.77,176.628 597.878,175.194 598.026,171.933 C598.223,164.665 583.028,167.98 583.028,159.132 C583.028,154.634 586.923,152.657 591.464,152.657 C594.326,152.656 596.791,153.447 598.814,154.684 L598.814,154.684 Z" id="Shape" fill="#8A8C8E" sketch:type="MSShapeGroup"></path>
        </g>
    </g>
</svg>